# xmcd
#
# Track frame offsets: 
#        150
#        30698
#        70817
#        99029
#        133721
#        183190
#        211043
#        244053
#        286916
#
# Disc length: 4217 seconds
#
# Revision: 5
# Processed by: cddbd v1.5.2PL0 Copyright (c) Steve Scherf et al.
# Submitted via: ExactAudioCopy v0.99pb5
#
DISCID=72107709
DTITLE=Jan Ptaszyn Wroblewski Quartet - Real Jazz
DYEAR=2005
DGENRE=Jazz
TTITLE0=Blue Sands
TTITLE1=On Green Dolphin Street
TTITLE2=Instead
TTITLE3=Uncle's Dance
TTITLE4=Promenade Through Empty Streets
TTITLE5=We'll Be Together Again
TTITLE6=Morning Thunder
TTITLE7=Sleep Safe And Warm
TTITLE8=Jada Gwizdze
EXTD=
EXTT0=
EXTT1=
EXTT2=
EXTT3=
EXTT4=
EXTT5=
EXTT6=
EXTT7=
EXTT8=
PLAYORDER=
